<svg xmlns="http://www.w3.org/2000/svg" viewBox="0 0 560 300" fill="none">
  <title>René Tiles</title>
  <g stroke="#252620" stroke-opacity=".16" stroke-width="1">
    <rect x="77" y="7" width="46" height="46" rx="1"/>
    <rect x="137" y="7" width="46" height="46" rx="1"/>
    <rect x="197" y="7" width="46" height="46" rx="1"/>
    <rect x="257" y="7" width="46" height="46" rx="1"/>
    <rect x="317" y="7" width="46" height="46" rx="1"/>
    <rect x="377" y="7" width="46" height="46" rx="1"/>
    <rect x="437" y="7" width="46" height="46" rx="1"/>
    <rect x="77" y="67" width="46" height="46" rx="1"/>
    <rect x="137" y="67" width="46" height="46" rx="1"/>
    <rect x="197" y="67" width="46" height="46" rx="1"/>
    <rect x="257" y="67" width="46" height="46" rx="1"/>
    <rect x="317" y="67" width="46" height="46" rx="1"/>
    <rect x="377" y="67" width="46" height="46" rx="1"/>
    <rect x="437" y="67" width="46" height="46" rx="1"/>
    <rect x="77" y="127" width="46" height="46" rx="1"/>
    <rect x="137" y="127" width="46" height="46" rx="1"/>
    <rect x="197" y="127" width="46" height="46" rx="1"/>
    <rect x="257" y="127" width="46" height="46" rx="1"/>
    <rect x="317" y="127" width="46" height="46" rx="1"/>
    <rect x="377" y="127" width="46" height="46" rx="1"/>
    <rect x="437" y="127" width="46" height="46" rx="1"/>
    <rect x="77" y="187" width="46" height="46" rx="1"/>
    <rect x="137" y="187" width="46" height="46" rx="1"/>
    <rect x="197" y="187" width="46" height="46" rx="1"/>
    <rect x="257" y="187" width="46" height="46" rx="1"/>
    <rect x="317" y="187" width="46" height="46" rx="1"/>
    <rect x="377" y="187" width="46" height="46" rx="1"/>
    <rect x="437" y="187" width="46" height="46" rx="1"/>
    <rect x="77" y="247" width="46" height="46" rx="1"/>
    <rect x="137" y="247" width="46" height="46" rx="1"/>
    <rect x="197" y="247" width="46" height="46" rx="1"/>
    <rect x="257" y="247" width="46" height="46" rx="1"/>
    <rect x="317" y="247" width="46" height="46" rx="1"/>
    <rect x="377" y="247" width="46" height="46" rx="1"/>
    <rect x="437" y="247" width="46" height="46" rx="1"/>
  </g>
  <g fill="#252620">
    <rect x="71.5" y="61.5" width="57" height="57" rx="2" fill-opacity="0.92"/>
    <rect x="131.5" y="61.5" width="27" height="27" rx="2" fill-opacity="0.95"/>
    <rect x="161.5" y="61.5" width="27" height="27" rx="2" fill-opacity="0.92"/>
    <rect x="191.1" y="61.1" width="12.8" height="12.8" rx="1" fill-opacity="0.94"/>
    <rect x="191.1" y="76.1" width="12.8" height="12.8" rx="1" fill-opacity="0.99"/>
    <rect x="206.1" y="61.1" width="12.8" height="12.8" rx="1" fill-opacity="0.91"/>
    <rect x="206.1" y="76.1" width="12.8" height="12.8" rx="1" fill-opacity="0.96"/>
    <rect x="191.5" y="91.5" width="27" height="27" rx="2" fill-opacity="0.95"/>
    <rect x="221.1" y="76.1" width="12.8" height="12.8" rx="1" fill-opacity="0.90"/>
    <rect x="221.1" y="91.1" width="12.8" height="12.8" rx="1" fill-opacity="0.92"/>
    <rect x="221.1" y="106.1" width="12.8" height="12.8" rx="1" fill-opacity="0.92"/>
    <rect x="236.1" y="91.1" width="12.8" height="12.8" rx="1" fill-opacity="0.96"/>
    <rect x="236.1" y="106.1" width="12.8" height="12.8" rx="1" fill-opacity="0.92"/>
    <rect x="311.1" y="76.1" width="12.8" height="12.8" rx="1" fill-opacity="0.95"/>
    <rect x="326.1" y="61.1" width="12.8" height="12.8" rx="1" fill-opacity="1.00"/>
    <rect x="326.1" y="76.1" width="12.8" height="12.8" rx="1" fill-opacity="0.91"/>
    <rect x="311.1" y="91.1" width="12.8" height="12.8" rx="1" fill-opacity="0.97"/>
    <rect x="326.1" y="91.1" width="12.8" height="12.8" rx="1" fill-opacity="0.96"/>
    <rect x="326.1" y="106.1" width="12.8" height="12.8" rx="1" fill-opacity="0.93"/>
    <rect x="341.5" y="61.5" width="27" height="27" rx="2" fill-opacity="0.96"/>
    <rect x="341.5" y="91.5" width="27" height="27" rx="2" fill-opacity="0.95"/>
    <rect x="371.5" y="61.5" width="57" height="57" rx="2" fill-opacity="0.98"/>
    <rect x="431.5" y="61.5" width="27" height="27" rx="2" fill-opacity="0.95"/>
    <rect x="431.5" y="91.5" width="27" height="27" rx="2" fill-opacity="1.00"/>
    <rect x="461.1" y="61.1" width="12.8" height="12.8" rx="1" fill-opacity="0.98"/>
    <rect x="461.1" y="76.1" width="12.8" height="12.8" rx="1" fill-opacity="0.94"/>
    <rect x="476.1" y="76.1" width="12.8" height="12.8" rx="1" fill-opacity="0.97"/>
    <rect x="461.1" y="91.1" width="12.8" height="12.8" rx="1" fill-opacity="0.93"/>
    <rect x="461.1" y="106.1" width="12.8" height="12.8" rx="1" fill-opacity="0.96"/>
    <rect x="476.1" y="91.1" width="12.8" height="12.8" rx="1" fill-opacity="0.91"/>
    <rect x="71.5" y="121.5" width="57" height="57" rx="2" fill-opacity="0.94"/>
    <rect x="131.5" y="151.5" width="27" height="27" rx="2" fill-opacity="0.91"/>
    <rect x="161.5" y="151.5" width="27" height="27" rx="2" fill-opacity="0.90"/>
    <rect x="191.5" y="121.5" width="27" height="27" rx="2" fill-opacity="0.94"/>
    <rect x="191.5" y="151.5" width="27" height="27" rx="2" fill-opacity="0.95"/>
    <rect x="221.1" y="121.1" width="12.8" height="12.8" rx="1" fill-opacity="0.97"/>
    <rect x="221.1" y="136.1" width="12.8" height="12.8" rx="1" fill-opacity="0.97"/>
    <rect x="236.1" y="121.1" width="12.8" height="12.8" rx="1" fill-opacity="0.91"/>
    <rect x="236.1" y="136.1" width="12.8" height="12.8" rx="1" fill-opacity="0.93"/>
    <rect x="221.1" y="151.1" width="12.8" height="12.8" rx="1" fill-opacity="0.98"/>
    <rect x="371.5" y="121.5" width="57" height="57" rx="2" fill-opacity="0.95"/>
    <rect x="71.5" y="181.5" width="27" height="27" rx="2" fill-opacity="0.93"/>
    <rect x="71.1" y="211.1" width="12.8" height="12.8" rx="1" fill-opacity="0.97"/>
    <rect x="86.1" y="211.1" width="12.8" height="12.8" rx="1" fill-opacity="0.98"/>
    <rect x="86.1" y="226.1" width="12.8" height="12.8" rx="1" fill-opacity="0.95"/>
    <rect x="101.5" y="181.5" width="27" height="27" rx="2" fill-opacity="0.97"/>
    <rect x="101.5" y="211.5" width="27" height="27" rx="2" fill-opacity="0.98"/>
    <rect x="161.1" y="181.1" width="12.8" height="12.8" rx="1" fill-opacity="0.93"/>
    <rect x="176.1" y="181.1" width="12.8" height="12.8" rx="1" fill-opacity="0.95"/>
    <rect x="176.1" y="196.1" width="12.8" height="12.8" rx="1" fill-opacity="0.96"/>
    <rect x="176.1" y="211.1" width="12.8" height="12.8" rx="1" fill-opacity="0.98"/>
    <rect x="191.5" y="181.5" width="27" height="27" rx="2" fill-opacity="0.97"/>
    <rect x="191.5" y="211.5" width="27" height="27" rx="2" fill-opacity="0.94"/>
    <rect x="221.1" y="196.1" width="12.8" height="12.8" rx="1" fill-opacity="0.98"/>
    <rect x="221.1" y="211.1" width="12.8" height="12.8" rx="1" fill-opacity="0.93"/>
    <rect x="221.1" y="226.1" width="12.8" height="12.8" rx="1" fill-opacity="0.96"/>
    <rect x="236.1" y="226.1" width="12.8" height="12.8" rx="1" fill-opacity="0.98"/>
    <rect x="266.1" y="196.1" width="12.8" height="12.8" rx="1" fill-opacity="0.96"/>
    <rect x="266.1" y="211.1" width="12.8" height="12.8" rx="1" fill-opacity="1.00"/>
    <rect x="266.1" y="226.1" width="12.8" height="12.8" rx="1" fill-opacity="0.91"/>
    <rect x="281.1" y="196.1" width="12.8" height="12.8" rx="1" fill-opacity="0.94"/>
    <rect x="281.1" y="211.1" width="12.8" height="12.8" rx="1" fill-opacity="0.97"/>
    <rect x="281.1" y="226.1" width="12.8" height="12.8" rx="1" fill-opacity="0.98"/>
    <rect x="296.1" y="211.1" width="12.8" height="12.8" rx="1" fill-opacity="0.95"/>
    <rect x="371.5" y="181.5" width="27" height="27" rx="2" fill-opacity="0.96"/>
    <rect x="371.1" y="211.1" width="12.8" height="12.8" rx="1" fill-opacity="1.00"/>
    <rect x="386.1" y="211.1" width="12.8" height="12.8" rx="1" fill-opacity="0.93"/>
    <rect x="386.1" y="226.1" width="12.8" height="12.8" rx="1" fill-opacity="0.92"/>
    <rect x="401.5" y="181.5" width="27" height="27" rx="2" fill-opacity="0.96"/>
    <rect x="401.1" y="211.1" width="12.8" height="12.8" rx="1" fill-opacity="0.97"/>
    <rect x="401.1" y="226.1" width="12.8" height="12.8" rx="1" fill-opacity="0.90"/>
    <rect x="416.1" y="211.1" width="12.8" height="12.8" rx="1" fill-opacity="0.92"/>
    <rect x="446.1" y="196.1" width="12.8" height="12.8" rx="1" fill-opacity="0.96"/>
    <rect x="446.1" y="211.1" width="12.8" height="12.8" rx="1" fill-opacity="0.97"/>
    <rect x="461.1" y="196.1" width="12.8" height="12.8" rx="1" fill-opacity="0.94"/>
    <rect x="476.1" y="196.1" width="12.8" height="12.8" rx="1" fill-opacity="0.91"/>
    <rect x="461.1" y="211.1" width="12.8" height="12.8" rx="1" fill-opacity="0.98"/>
    <rect x="461.1" y="226.1" width="12.8" height="12.8" rx="1" fill-opacity="1.00"/>
    <rect x="476.1" y="211.1" width="12.8" height="12.8" rx="1" fill-opacity="0.92"/>
  </g>
  <path d="M24 24h10m-5-5v10M526 24h10m-5-5v10M24 276h10m-5-5v10M526 276h10m-5-5v10" stroke="#252620" stroke-opacity=".3"/>
</svg>
